<?xml version="1.0" encoding="utf-8"?>
<!-- Generator: Adobe Illustrator 19.0.0, SVG Export Plug-In . SVG Version: 6.00 Build 0)  -->
<svg version="1.1" id="Layer_1" xmlns="http://www.w3.org/2000/svg" xmlns:xlink="http://www.w3.org/1999/xlink" x="0px" y="0px"
	 viewBox="0 0 499 498" style="enable-background:new 0 0 499 498;" xml:space="preserve">
<style type="text/css">
	.st0{fill:#36879b;}
	.st1{fill:none;stroke:#000000;stroke-width:16;stroke-linecap:round;stroke-linejoin:round;stroke-miterlimit:10;}
	.st2{fill:none;stroke:#000000;stroke-width:9;stroke-linecap:round;stroke-miterlimit:10;}
</style>
<circle class="st0" cx="249.5" cy="249" r="207.3"/>
<path id="XMLID_2_" class="st1" d="M205.6,143.2c0,0-85.6-12.4-76.7,99.3l-30,12.9l26.7,7.8c0,0,5.6,141.1,104.4,91.1"/>
<path id="XMLID_3_" class="st1" d="M293.4,143.2c0,0,85.6-12.4,76.7,99.3l30,12.9l-26.7,7.8c0,0-5.6,141.1-104.4,91.1"/>
<ellipse id="XMLID_1_" cx="421" cy="232.1" rx="17" ry="16.9"/>
<path id="XMLID_5_" d="M436.7,280.9c0,6-2.9,11.4-7.4,14.3c-2.4,1.6-5.2,2.6-8.3,2.6c-8.7,0-15.7-7.6-15.7-16.9
	c0-9.3,7-16.9,15.7-16.9S436.7,271.6,436.7,280.9z"/>
<path id="XMLID_6_" class="st2" d="M421,293.6c0,0,2.4,20.4-13.6,18.4"/>
</svg>
