<?xml version="1.0" encoding="utf-8"?>
<!-- Generator: Adobe Illustrator 19.0.0, SVG Export Plug-In . SVG Version: 6.00 Build 0)  -->
<svg version="1.1" id="Layer_1" xmlns="http://www.w3.org/2000/svg" xmlns:xlink="http://www.w3.org/1999/xlink" x="0px" y="0px"
	 viewBox="0 0 499 498" style="enable-background:new 0 0 499 498;" xml:space="preserve">
<style type="text/css">
	.st0{fill:#36879b;}
</style>
<circle class="st0" cx="249.5" cy="249" r="207.3"/>
<g>
	<g>
		<path d="M178.2,132.5c-27.7,18.4-54.4,40.2-76.6,64.9c-13.9,15.5-28.1,34-30.7,55.2c-1.1,8.9,0.6,18.2,5.5,25.9
			c3.9,6.1,9.5,10.9,14.8,15.8c8.1,7.5,16.3,14.8,24.6,21.9c20,17.2,40.7,34.2,62.4,49.2c8,5.5,15.5-7.5,7.6-13
			c-16.2-11.2-31.7-23.6-46.8-36.2c-15.6-12.9-31.3-26.2-45.6-40.5c-5.4-5.4-7.8-11.2-7.8-18c0-7.1,2.9-15.1,6.6-22.1
			c4.8-9.1,10.9-17.1,17.5-24.8c14.1-16.3,30.3-30.7,47.1-44.1c8.8-7.1,18.7-14.5,28.9-21.4C193.7,140.2,186.2,127.2,178.2,132.5
			L178.2,132.5z"/>
	</g>
</g>
<g>
	<g>
		<path d="M313.3,145.5c25.5,17,49.3,36.4,70.6,59.4c12.9,13.9,26.1,30,29.3,48.4c0,0.3,0.2,1.5,0,0.1c0.1,0.5,0.1,0.9,0.1,1.4
			c0.1,0.9,0.1,1.8,0.1,2.7c0,0.9,0,1.8-0.1,2.7c0,0.4-0.1,0.9-0.1,1.3c0.2-1.7,0,0.3-0.1,0.6c-0.3,1.5-1.1,4.3-1.3,4.8
			c-0.3,0.7-1.8,3.5-2.7,4.9c-0.6,0.9-1.9,2.4-3.4,3.9c-3.9,3.8-8,7.5-12,11.2c-7.6,6.9-15.2,13.7-23,20.3
			c-18.5,15.8-37.4,31.3-57.4,45.2c-7.9,5.5-0.4,18.5,7.6,13c17.7-12.3,34.5-25.8,51-39.6c7.9-6.6,15.7-13.3,23.4-20.2
			c7.6-6.8,15.8-13.4,22.6-21c6.5-7.2,10.3-16.1,10.6-25.9c0.6-20.6-12.9-39.8-25.5-54.9c-14.5-17.5-31.6-32.8-49.2-46.9
			c-10.7-8.6-21.6-16.9-32.9-24.5C312.8,127.2,305.2,140.1,313.3,145.5L313.3,145.5z"/>
	</g>
</g>
<g>
	<g>
		<path d="M266,137c-5.5,24.7-11,49.4-16.5,74.1c-8.8,39.6-17.6,79.1-26.4,118.7c-2,9.1-4,18.1-6,27.2c-2.1,9.4,12.4,13.4,14.5,4
			c5.5-24.7,11-49.4,16.5-74.1c8.8-39.6,17.6-79.1,26.4-118.7c2-9.1,4-18.1,6-27.2C282.5,131.6,268.1,127.6,266,137L266,137z"/>
	</g>
</g>
</svg>
